<svg width="773" height="771" viewBox="0 0 773 771" fill="none" xmlns="http://www.w3.org/2000/svg">
<path fill-rule="evenodd" clip-rule="evenodd" d="M486.724 194.523L438.606 46.4288C428.436 15.1311 384.158 15.1311 373.989 46.4288L366.99 67.9693C364.773 74.7921 364.773 82.1417 366.99 88.9645L408.11 215.518C412.658 229.515 425.701 238.991 440.418 238.991H454.416C477.495 238.991 493.856 216.472 486.724 194.523ZM614.591 263.137L480.029 360.902C468.123 369.553 463.141 384.886 467.689 398.883L493.319 477.765C505.425 515.024 462.781 546.007 431.086 522.98L363.985 474.228C352.079 465.578 335.956 465.578 324.05 474.228L216.397 552.443C210.593 556.659 206.273 562.605 204.056 569.428L175.197 658.248C165.028 689.545 200.85 715.571 227.473 696.228L382.526 583.575C396.701 573.277 415.894 573.277 430.068 583.575L585.122 696.228C611.745 715.571 647.567 689.545 637.398 658.248L578.172 475.971C572.758 459.309 578.69 441.055 592.864 430.756L747.917 318.103C774.541 298.76 760.858 256.65 727.95 256.65H634.559C627.385 256.65 620.395 258.921 614.591 263.137ZM213.39 364.814L71.0353 261.388C66.7965 258.308 61.6916 256.65 56.4521 256.65C32.4177 256.65 22.4247 287.405 41.869 301.532L184.223 404.958C197.86 414.866 217.194 408.584 222.403 392.553C225.724 382.331 222.085 371.132 213.39 364.814ZM489.801 193.523C497.612 217.563 479.693 242.227 454.416 242.227H440.418C424.299 242.227 410.014 231.847 405.033 216.518L363.913 89.9643C361.485 82.4916 361.485 74.4422 363.913 66.9696L370.912 45.429C382.05 11.1506 430.545 11.1506 441.683 45.429L489.801 193.523ZM612.69 260.52C619.046 255.902 626.702 253.414 634.559 253.414H727.95C763.992 253.414 778.978 299.536 749.819 320.721L594.765 433.374C581.725 442.848 576.268 459.642 581.249 474.972L640.475 657.248C651.612 691.526 612.379 720.031 583.22 698.846L428.167 586.193C415.126 576.718 397.468 576.718 384.428 586.193L229.375 698.846C200.216 720.031 160.982 691.526 172.12 657.248L200.979 568.428C203.407 560.956 208.139 554.443 214.495 549.825L322.148 471.611C335.188 462.137 352.846 462.137 365.887 471.611L432.988 520.363C462.147 541.548 501.38 513.043 490.242 478.765L464.612 399.883C459.631 384.553 465.087 367.759 478.128 358.285L612.69 260.52ZM225.48 393.553C219.592 411.674 197.736 418.775 182.322 407.576L39.9673 304.149C17.9875 288.18 29.2835 253.414 56.4521 253.414C62.3748 253.414 68.1455 255.289 72.937 258.77L215.291 362.197C225.121 369.339 229.234 381.998 225.48 393.553Z" fill="url(#paint0_linear_319_224)"/>
<path fill-rule="evenodd" clip-rule="evenodd" d="M494.362 198.83L453.093 48.6827C444.372 16.9511 400.14 14.9182 388.545 45.716L380.564 66.9125C378.037 73.6263 377.699 80.9681 379.6 87.8855L414.866 216.193C418.767 230.384 431.361 240.45 446.063 241.125L460.046 241.768C483.1 242.828 500.478 221.083 494.362 198.83ZM618.944 273.243L480.035 364.727C467.744 372.821 462.063 387.91 465.964 402.101L487.945 482.076C498.328 519.852 454.306 548.844 423.702 524.386L358.91 472.605C347.413 463.417 331.308 462.677 319.017 470.771L207.887 543.961C201.895 547.906 197.307 553.648 194.779 560.362L161.872 647.763C150.277 678.56 184.866 706.204 212.349 688.103L372.411 582.688C387.044 573.052 406.217 573.933 419.903 584.871L569.621 704.524C595.328 725.069 632.307 700.715 623.585 668.983L572.792 484.18C568.148 467.286 574.911 449.324 589.543 439.687L749.605 334.272C777.089 316.172 765.354 273.477 732.48 271.966L639.188 267.678C632.022 267.349 624.935 269.297 618.944 273.243ZM213.497 356.392L76.0412 246.539C71.9483 243.268 66.9249 241.377 61.6909 241.136C37.6819 240.033 26.2873 270.297 45.0625 285.302L182.518 395.155C195.685 405.678 215.288 400.29 221.227 384.516C225.014 374.457 221.893 363.103 213.497 356.392ZM497.481 197.972C504.18 222.345 485.147 246.16 459.897 245L445.914 244.357C429.813 243.617 416.019 232.593 411.747 217.051L376.481 88.743C374.398 81.1667 374.768 73.1258 377.536 65.7725L385.517 44.576C398.217 10.845 446.661 13.0716 456.213 47.8253L497.481 197.972ZM617.164 270.541C623.726 266.219 631.488 264.086 639.337 264.447L732.629 268.734C768.633 270.389 781.486 317.15 751.385 336.974L591.323 442.389C577.861 451.255 571.639 467.78 575.911 483.323L626.705 668.126C636.257 702.88 595.757 729.553 567.601 707.051L417.883 587.398C405.292 577.335 387.652 576.524 374.191 585.39L214.129 690.805C184.028 710.629 146.145 680.354 158.845 646.623L191.751 559.222C194.52 551.868 199.545 545.58 206.107 541.259L317.237 468.069C330.699 459.204 348.338 460.015 360.93 470.078L425.722 521.859C453.877 544.36 494.378 517.687 484.826 482.933L462.844 402.958C458.572 387.416 464.794 370.89 478.256 362.025L617.164 270.541ZM224.255 385.656C217.541 403.487 195.382 409.578 180.498 397.682L43.0427 287.829C21.8192 270.867 34.6996 236.657 61.8395 237.904C67.7559 238.176 73.4344 240.314 78.0611 244.012L215.517 353.865C225.008 361.45 228.536 374.285 224.255 385.656Z" fill="url(#paint1_linear_319_224)"/>
<path fill-rule="evenodd" clip-rule="evenodd" d="M501.779 203.472L467.435 51.5917C460.177 19.4937 416.086 15.4359 403.091 45.6699L394.147 66.4784C391.314 73.0694 390.641 80.3879 392.223 87.3852L421.572 217.174C424.818 231.529 436.938 242.161 451.593 243.51L465.532 244.793C488.514 246.908 506.87 225.983 501.779 203.472ZM622.821 283.517L479.865 368.538C467.216 376.061 460.85 390.873 464.096 405.228L482.389 486.127C491.03 524.339 445.725 551.284 416.274 525.448L353.923 470.752C342.86 461.047 326.805 459.569 314.156 467.092L199.788 535.112C193.623 538.779 188.776 544.304 185.943 550.895L149.065 636.696C136.071 666.93 169.356 696.129 197.641 679.307L362.366 581.338C377.424 572.383 396.537 574.142 409.707 585.695L553.784 712.084C578.523 733.786 616.579 711.152 609.321 679.054L567.05 492.117C563.185 475.028 570.764 457.395 585.823 448.439L750.548 350.47C778.832 333.648 769.066 290.461 736.296 287.445L643.299 278.886C636.155 278.228 628.986 279.849 622.821 283.517ZM213.989 347.998L81.712 231.96C77.7733 228.505 72.8418 226.386 67.6244 225.905C43.6912 223.703 30.9216 253.413 48.9894 269.263L181.266 385.3C193.937 396.415 213.766 391.931 220.422 376.446C224.666 366.571 222.069 355.086 213.989 347.998ZM504.935 202.759C510.51 227.413 490.406 250.331 465.235 248.014L451.296 246.732C435.246 245.254 421.971 233.61 418.416 217.888L389.068 88.0988C387.335 80.4351 388.072 72.4195 391.175 65.2009L400.118 44.3924C414.351 11.2789 462.642 15.7232 470.591 50.8781L504.935 202.759ZM621.167 280.736C627.92 276.719 635.771 274.944 643.595 275.664L736.593 284.223C772.484 287.526 783.179 334.827 752.202 353.251L587.477 451.22C573.623 459.459 566.65 475.682 570.205 491.404L612.476 678.341C620.426 713.495 578.746 738.285 551.651 714.516L407.574 588.128C395.457 577.498 377.873 575.88 364.019 584.119L199.294 682.088C168.317 700.512 131.861 668.532 146.093 635.418L182.971 549.617C186.073 542.399 191.382 536.347 198.135 532.331L312.502 464.312C326.356 456.072 343.94 457.691 356.057 468.32L418.408 523.016C445.502 546.785 487.183 521.995 479.233 486.84L460.94 405.942C457.385 390.22 464.358 373.997 478.211 365.758L621.167 280.736ZM223.394 377.723C215.87 395.228 193.456 400.297 179.133 387.732L46.8559 271.695C26.432 253.778 40.8667 220.194 67.9209 222.684C73.8187 223.226 79.3932 225.622 83.8456 229.528L216.122 345.565C225.256 353.578 228.192 366.561 223.394 377.723Z" fill="url(#paint2_linear_319_224)"/>
<path fill-rule="evenodd" clip-rule="evenodd" d="M508.919 208.412L481.514 55.127C475.722 22.7323 431.86 16.6744 417.505 46.2866L407.625 66.667C404.495 73.1224 403.49 80.4028 404.752 87.4648L428.171 218.454C430.761 232.941 442.385 244.113 456.964 246.127L470.83 248.042C493.692 251.199 512.98 231.13 508.919 208.412ZM626.196 293.875L479.524 372.311C466.546 379.251 459.513 393.759 462.103 408.246L476.7 489.893C483.595 528.458 437.112 553.316 408.866 526.168L349.066 468.695C338.455 458.497 322.484 456.291 309.507 463.231L192.165 525.982C185.839 529.365 180.746 534.664 177.617 541.119L136.877 625.155C122.522 654.767 154.446 685.449 183.465 669.93L352.473 579.55C367.923 571.288 386.936 573.914 399.568 586.055L537.751 718.862C561.478 741.665 600.523 720.785 594.732 688.39L561.001 499.725C557.918 482.478 566.29 465.207 581.74 456.945L750.748 366.565C779.768 351.046 771.975 307.459 739.376 302.957L646.864 290.18C639.757 289.199 632.522 290.492 626.196 293.875ZM214.856 339.706L87.9906 217.776C84.213 214.146 79.3829 211.804 74.1927 211.087C50.3843 207.799 36.2775 236.898 53.6062 253.553L180.472 375.482C192.624 387.162 212.637 383.584 219.989 368.417C224.678 358.745 222.606 347.154 214.856 339.706ZM512.104 207.842C516.552 232.724 495.427 254.705 470.388 251.247L456.522 249.332C440.554 247.126 427.823 234.89 424.986 219.023L401.568 88.0342C400.185 80.2996 401.286 72.3259 404.714 65.2557L414.594 44.8753C430.316 12.4429 478.355 19.0776 484.699 54.5576L512.104 207.842ZM624.671 291.022C631.599 287.317 639.523 285.9 647.306 286.975L739.819 299.752C775.522 304.683 784.057 352.421 752.274 369.418L583.266 459.798C569.052 467.399 561.349 483.289 564.186 499.156L597.916 687.821C604.26 723.301 561.496 746.17 535.509 721.194L397.326 588.387C385.705 577.218 368.213 574.802 353.999 582.403L184.991 672.784C153.208 689.78 118.243 656.176 133.966 623.744L174.706 539.708C178.133 532.637 183.711 526.834 190.64 523.129L307.981 460.378C322.195 452.777 339.687 455.193 351.308 466.362L411.108 523.836C437.095 548.811 479.859 525.942 473.515 490.462L458.918 408.815C456.082 392.948 463.784 377.059 477.998 369.458L624.671 291.022ZM222.901 369.829C214.589 386.974 191.967 391.018 178.23 377.815L51.3643 255.885C31.776 237.059 47.7223 204.165 74.6354 207.882C80.5024 208.693 85.9622 211.34 90.2324 215.444L217.098 337.374C225.858 345.793 228.201 358.896 222.901 369.829Z" fill="url(#paint3_linear_319_224)"/>
<path fill-rule="evenodd" clip-rule="evenodd" d="M515.892 213.721L495.553 59.3394C491.255 26.7129 447.718 18.6477 432.018 47.5695L421.212 67.4748C417.79 73.7797 416.451 81.0063 417.388 88.1188L434.768 220.045C436.69 234.636 447.789 246.33 462.26 249.011L476.024 251.56C498.717 255.764 518.906 236.602 515.892 213.721ZM629.122 304.478L479.003 376.097C465.72 382.434 458.028 396.604 459.95 411.195L470.784 493.426C475.901 532.267 428.326 554.964 401.356 526.549L344.257 466.39C334.126 455.715 318.273 452.779 304.99 459.116L184.892 516.413C178.417 519.502 173.086 524.561 169.664 530.866L125.109 612.943C109.409 641.865 139.89 673.98 169.592 659.81L342.571 577.285C358.384 569.741 377.256 573.237 389.318 585.945L521.257 724.956C543.912 748.825 583.875 729.759 579.577 697.133L554.544 507.118C552.256 489.748 561.413 472.88 577.226 465.336L750.205 382.81C779.906 368.64 774.123 324.741 741.765 318.747L649.937 301.736C642.883 300.429 635.596 301.389 629.122 304.478ZM216.111 331.376L94.9773 203.75C91.3704 199.949 86.653 197.388 81.5012 196.434C57.8688 192.056 42.4409 220.477 58.9867 237.909L180.12 365.535C191.724 377.761 211.879 375.106 219.921 360.292C225.049 350.846 223.511 339.172 216.111 331.376ZM519.099 213.298C522.401 238.358 500.288 259.346 475.435 254.741L461.671 252.192C445.822 249.256 433.666 236.448 431.561 220.468L414.18 88.5414C413.154 80.7515 414.62 72.8367 418.369 65.9313L429.174 46.026C446.37 14.3497 494.053 23.183 498.761 58.9168L519.099 213.298ZM627.729 301.558C634.82 298.175 642.8 297.124 650.526 298.555L742.354 315.566C777.794 322.131 784.128 370.211 751.598 385.73L578.619 468.256C564.071 475.196 555.646 490.715 557.752 506.696L582.784 696.71C587.492 732.444 543.723 753.326 518.911 727.183L386.971 588.172C375.875 576.481 358.512 573.265 343.964 580.205L170.985 662.73C138.455 678.25 105.07 643.076 122.265 611.4L166.82 529.323C170.569 522.417 176.407 516.876 183.499 513.493L303.597 456.196C318.145 449.255 335.508 452.472 346.604 464.163L403.702 524.321C428.515 550.464 472.284 529.582 467.576 493.848L456.743 411.617C454.638 395.637 463.062 380.118 477.61 373.177L627.729 301.558ZM222.764 361.836C213.674 378.581 190.89 381.582 177.774 367.763L56.6401 240.137C37.9367 220.431 55.3764 188.304 82.0905 193.253C87.9141 194.332 93.2467 197.226 97.324 201.522L218.458 329.148C226.822 337.961 228.561 351.157 222.764 361.836Z" fill="url(#paint4_linear_319_224)"/>
<path fill-rule="evenodd" clip-rule="evenodd" d="M522.606 219.336L509.364 64.1847C506.565 31.3955 463.443 21.3435 446.434 49.5154L434.728 68.9046C431.02 75.0461 429.352 82.2037 429.962 89.3516L441.278 221.936C442.529 236.6 453.08 248.79 467.413 252.131L481.046 255.309C503.522 260.548 524.568 242.331 522.606 219.336ZM631.557 315.187L478.314 379.851C464.755 385.573 456.422 399.375 457.673 414.039L464.727 496.68C468.058 535.714 419.493 556.208 393.854 526.586L339.572 463.874C329.94 452.746 314.239 449.086 300.68 454.808L178.081 506.541C171.472 509.33 165.915 514.139 162.207 520.281L113.937 600.23C96.9284 628.402 125.906 661.88 156.226 649.086L332.805 574.575C348.948 567.764 367.64 572.121 379.106 585.368L504.536 730.28C526.074 755.162 566.868 737.948 564.07 705.159L547.771 514.196C546.282 496.74 556.202 480.309 572.344 473.497L748.923 398.986C779.243 386.192 775.478 342.074 743.429 334.604L652.476 313.402C645.49 311.773 638.167 312.398 631.557 315.187ZM217.748 323.129L102.591 190.085C99.1616 186.124 94.5665 183.349 89.4638 182.16C66.0569 176.704 49.3427 204.387 65.0722 222.56L180.23 355.603C191.261 368.348 211.517 366.619 220.228 352.189C225.784 342.988 224.783 331.256 217.748 323.129ZM525.829 219.061C527.979 244.246 504.928 264.198 480.311 258.459L466.679 255.282C450.981 251.622 439.425 238.271 438.054 222.211L426.738 89.6267C426.07 81.798 427.897 73.9587 431.958 67.2324L443.665 47.8432C462.294 16.9882 509.522 27.9976 512.587 63.9096L525.829 219.061ZM630.3 312.207C637.539 309.152 645.559 308.467 653.211 310.251L744.163 331.453C779.264 339.635 783.388 387.954 750.181 401.967L573.602 476.478C558.751 482.745 549.624 497.861 550.995 513.921L567.293 704.884C570.358 740.796 525.679 759.649 502.09 732.397L376.66 587.486C366.111 575.298 348.914 571.289 334.063 577.556L157.484 652.067C124.277 666.08 92.5388 629.413 111.168 598.558L159.437 518.609C163.498 511.882 169.585 506.614 176.824 503.56L299.422 451.827C314.273 445.56 331.469 449.569 342.018 461.757L396.3 524.469C419.888 551.721 464.568 532.867 461.503 496.955L454.45 414.314C453.079 398.254 462.206 383.137 477.056 376.871L630.3 312.207ZM222.998 353.862C213.15 370.173 190.253 372.127 177.783 357.721L62.626 224.677C44.8454 204.135 63.7391 172.841 90.1983 179.009C95.9664 180.354 101.161 183.49 105.037 187.968L220.194 321.011C228.146 330.198 229.278 343.46 222.998 353.862Z" fill="url(#paint5_linear_319_224)"/>
<path fill-rule="evenodd" clip-rule="evenodd" d="M528.56 224.781L521.884 69.2088C520.473 36.3306 477.814 24.4661 459.63 51.8944L447.116 70.7718C443.152 76.7511 441.182 83.8319 441.49 90.9992L447.195 223.943C447.826 238.647 457.853 251.272 472.032 255.215L485.518 258.966C507.753 265.15 529.55 247.838 528.56 224.781ZM633.366 325.149L477.528 383.282C463.739 388.426 454.831 401.864 455.462 416.567L459.018 499.432C460.698 538.573 411.31 556.996 386.945 526.318L335.361 461.369C326.208 449.845 310.675 445.525 296.886 450.668L172.212 497.176C165.491 499.684 159.735 504.255 155.771 510.234L104.168 588.073C85.9841 615.501 113.522 650.174 144.355 638.672L323.924 571.686C340.34 565.562 358.831 570.705 369.728 584.425L488.925 734.506C509.392 760.275 550.877 744.8 549.466 711.922L541.249 520.441C540.498 502.937 551.103 486.94 567.518 480.816L747.088 413.83C777.921 402.328 776.022 358.091 744.317 349.273L654.342 324.249C647.43 322.326 640.088 322.642 633.366 325.149ZM219.591 315.604L110.156 177.815C106.897 173.712 102.423 170.746 97.3756 169.342C74.2201 162.902 56.3514 189.855 71.2992 208.675L180.734 346.464C191.217 359.663 211.528 358.792 220.841 344.743C226.781 335.785 226.276 324.02 219.591 315.604ZM531.793 224.642C532.877 249.896 509.003 268.856 484.651 262.083L471.165 258.332C455.636 254.013 444.654 240.186 443.963 224.082L438.257 91.1379C437.921 83.288 440.077 75.5329 444.419 68.9841L456.934 50.1067C476.849 20.0662 523.571 33.0606 525.116 69.07L531.793 224.642ZM632.235 322.118C639.597 319.371 647.639 319.026 655.209 321.132L745.184 346.156C779.909 355.814 781.988 404.264 748.219 416.862L568.649 483.848C553.547 489.481 543.79 504.199 544.481 520.302L552.699 711.783C554.244 747.792 508.808 764.742 486.392 736.518L367.194 586.437C357.169 573.815 340.157 569.083 325.055 574.717L145.486 641.703C111.716 654.3 81.5557 616.325 101.471 586.285L153.075 508.446C157.416 501.897 163.72 496.891 171.081 494.145L295.755 447.637C310.858 442.003 327.87 446.735 337.894 459.357L389.478 524.306C411.894 552.53 457.331 535.58 455.786 499.571L452.229 416.706C451.538 400.602 461.295 385.885 476.397 380.251L632.235 322.118ZM223.538 346.531C213.01 362.411 190.051 363.397 178.201 348.477L68.7657 210.688C51.8687 189.413 72.0674 158.945 98.2425 166.225C103.949 167.812 109.006 171.165 112.689 175.802L222.124 313.591C229.681 323.106 230.252 336.404 223.538 346.531Z" fill="url(#paint6_linear_319_224)"/>
<path fill-rule="evenodd" clip-rule="evenodd" d="M534.759 230.974L535.232 75.2591C535.333 42.3508 493.263 28.5403 473.84 55.1048L460.471 73.3877C456.237 79.1787 453.944 86.1616 453.923 93.3355L453.518 226.401C453.473 241.118 462.91 254.19 476.893 258.78L490.193 263.146C512.12 270.345 534.689 254.052 534.759 230.974ZM634.846 336.048L476.503 386.965C462.493 391.47 452.977 404.485 452.932 419.202L452.68 502.143C452.561 541.319 402.38 557.456 379.449 525.691L330.901 458.442C322.287 446.51 306.969 441.481 292.958 445.986L166.28 486.721C159.451 488.917 153.492 493.219 149.257 499.01L94.1345 574.397C74.7106 600.962 100.628 636.862 131.956 626.788L314.411 568.117C331.091 562.754 349.327 568.741 359.582 582.946L471.763 738.341C491.025 765.023 533.177 751.469 533.277 718.56L533.86 526.905C533.913 509.385 545.242 493.891 561.921 488.528L744.376 429.857C775.705 419.783 775.839 375.505 744.573 365.241L655.841 336.112C649.025 333.874 641.676 333.852 634.846 336.048ZM221.945 307.515L118.952 164.847C115.885 160.599 111.552 157.431 106.574 155.796C83.739 148.3 64.6517 174.404 78.7196 193.891L181.713 336.559C191.579 350.226 211.908 350.287 221.857 336.681C228.201 328.005 228.237 316.23 221.945 307.515ZM537.995 230.983C537.918 256.26 513.199 274.104 489.184 266.22L475.884 261.854C460.569 256.827 450.234 242.51 450.283 226.391L450.687 93.3257C450.711 85.4685 453.222 77.8206 457.859 71.4781L471.228 53.1952C492.502 24.1007 538.577 39.2266 538.468 75.2689L537.995 230.983ZM633.856 332.968C641.336 330.562 649.385 330.587 656.85 333.038L745.582 362.167C779.826 373.409 779.679 421.903 745.367 432.937L562.911 491.608C547.566 496.542 537.144 510.796 537.095 526.915L536.512 718.57C536.403 754.613 490.236 769.458 469.14 740.235L356.958 584.84C347.524 571.771 330.747 566.263 315.402 571.197L132.947 629.868C98.6344 640.902 70.249 601.582 91.5228 572.488L146.646 497.1C151.283 490.758 157.81 486.046 165.29 483.641L291.968 442.906C307.313 437.972 324.09 443.479 333.524 456.548L382.072 523.797C403.168 553.021 449.335 538.175 449.445 502.133L449.697 419.192C449.746 403.073 460.168 388.819 475.513 383.885L633.856 332.968ZM224.468 338.591C213.222 353.971 190.242 353.901 179.09 338.453L76.0964 195.785C60.194 173.757 81.7703 144.248 107.583 152.722C113.211 154.57 118.109 158.151 121.575 162.953L224.569 305.621C231.68 315.473 231.64 328.783 224.468 338.591Z" fill="url(#paint7_linear_319_224)"/>
<path fill-rule="evenodd" clip-rule="evenodd" d="M540.664 237.436L548.273 81.9068C549.881 49.0377 508.489 33.3137 487.868 58.9601L473.676 76.6112C469.181 82.202 466.571 89.0725 466.22 96.2379L459.718 229.145C458.999 243.845 467.827 257.335 481.585 262.562L494.67 267.533C516.245 275.728 539.536 260.487 540.664 237.436ZM635.831 346.987L475.321 390.594C461.119 394.452 451.016 407.017 450.297 421.716L446.244 504.559C444.33 543.688 393.461 557.508 372.01 524.726L326.596 455.323C318.537 443.008 303.466 437.283 289.263 441.141L160.852 476.028C153.929 477.909 147.779 481.933 143.284 487.524L84.7638 560.305C64.1429 585.952 88.3874 623.003 120.145 614.375L305.097 564.127C322.005 559.534 339.947 566.35 349.54 581.011L454.482 741.384C472.501 768.92 515.23 757.312 516.838 724.443L526.203 533.015C527.06 515.516 539.087 500.558 555.994 495.964L740.947 445.717C772.704 437.089 774.867 392.864 744.104 381.178L656.801 348.013C650.094 345.465 642.754 345.106 635.831 346.987ZM224.671 299.561L128.325 152.323C125.456 147.939 121.272 144.575 116.375 142.715C93.9067 134.179 73.6431 159.381 86.8032 179.493L183.15 326.731C192.379 340.835 212.684 341.829 223.246 328.693C229.981 320.316 230.557 308.555 224.671 299.561ZM543.896 237.594C542.661 262.841 517.15 279.533 493.521 270.557L480.436 265.586C465.368 259.862 455.699 245.086 456.487 228.987L462.989 96.0798C463.373 88.232 466.231 80.7072 471.155 74.5839L485.347 56.9328C507.932 28.8438 553.266 46.0654 551.505 82.0649L543.896 237.594ZM634.982 343.865C642.565 341.805 650.605 342.198 657.95 344.988L745.253 378.153C778.946 390.953 776.577 439.39 741.795 448.839L556.842 499.086C541.287 503.312 530.223 517.074 529.435 533.173L520.07 724.601C518.308 760.6 471.51 773.314 451.775 743.155L346.833 582.782C338.007 569.294 321.5 563.024 305.945 567.25L120.993 617.497C86.2111 626.946 59.6576 586.367 82.2424 558.278L140.762 485.496C145.686 479.373 152.421 474.966 160.004 472.906L288.415 438.019C303.97 433.793 320.477 440.064 329.303 453.552L374.718 522.955C394.453 553.114 441.251 540.4 443.012 504.4L447.065 421.558C447.853 405.459 458.918 391.697 474.473 387.471L634.982 343.865ZM225.768 330.72C213.828 345.569 190.875 344.446 180.443 328.503L84.096 181.264C69.2198 158.53 92.1257 130.042 117.523 139.69C123.06 141.793 127.789 145.595 131.032 150.551L227.379 297.79C234.031 307.957 233.381 321.251 225.768 330.72Z" fill="url(#paint8_linear_319_224)"/>
<path fill-rule="evenodd" clip-rule="evenodd" d="M546.219 244.107L560.889 89.0842C563.99 56.3222 523.355 38.7329 501.59 63.4155L486.61 80.4033C481.865 85.784 478.946 92.5287 478.27 99.6708L465.733 232.145C464.346 246.797 472.552 260.675 486.058 266.521L498.904 272.082C520.084 281.25 544.044 267.083 546.219 244.107ZM636.307 357.87L473.981 394.136C459.618 397.345 448.955 409.437 447.568 424.089L439.754 506.661C436.063 545.664 384.619 557.157 364.68 523.434L322.467 452.038C314.977 439.37 300.181 432.965 285.818 436.174L155.954 465.188C148.952 466.752 142.626 470.492 137.881 475.873L76.1135 545.92C54.3482 570.602 76.8835 608.717 109 601.541L296.045 559.753C313.144 555.933 330.758 563.557 339.675 578.639L437.219 743.616C453.967 771.943 497.18 762.289 500.281 729.527L518.337 538.723C519.988 521.281 532.682 506.885 549.781 503.065L736.827 461.276C768.943 454.101 773.115 410.02 742.914 396.947L657.209 359.848C650.625 356.998 643.308 356.306 636.307 357.87ZM227.728 291.804L138.174 140.339C135.507 135.829 131.481 132.279 126.673 130.197C104.616 120.65 83.2282 144.905 95.4605 165.593L185.015 317.059C193.594 331.568 213.833 333.483 224.981 320.841C232.09 312.779 233.199 301.057 227.728 291.804ZM549.44 244.412C547.058 269.576 520.815 285.092 497.619 275.051L484.773 269.49C469.98 263.087 460.993 247.887 462.512 231.84L475.049 99.366C475.789 91.5437 478.987 84.1566 484.183 78.2634L499.163 61.2757C523.002 34.2424 567.506 53.5068 564.11 89.389L549.44 244.412ZM635.602 354.712C643.27 352.999 651.283 353.758 658.494 356.879L744.2 393.978C777.276 408.296 772.707 456.575 737.532 464.434L550.487 506.222C534.756 509.737 523.077 522.981 521.558 539.028L503.501 729.832C500.106 765.714 452.778 776.288 434.434 745.263L336.89 580.285C328.687 566.41 312.482 559.396 296.751 562.91L109.706 604.699C74.5302 612.558 49.8487 570.813 73.6869 543.78L135.455 473.733C140.651 467.84 147.58 463.743 155.248 462.03L285.113 433.017C300.844 429.502 317.049 436.517 325.252 450.392L367.465 521.787C385.809 552.813 433.137 542.239 436.533 506.356L444.347 423.784C445.866 407.737 457.545 394.493 473.276 390.978L635.602 354.712ZM227.407 322.981C214.805 337.272 191.927 335.107 182.23 318.706L92.6755 167.24C78.8481 143.853 103.025 116.436 127.958 127.228C133.394 129.581 137.945 133.594 140.959 138.692L230.513 290.158C236.697 300.617 235.443 313.868 227.407 322.981Z" fill="url(#paint9_linear_319_224)"/>
<path fill-rule="evenodd" clip-rule="evenodd" d="M551.516 251.09L573.288 96.9049C577.89 64.3198 538.106 44.8835 515.23 68.5407L499.486 84.8228C494.499 89.98 491.273 96.5836 490.27 103.687L471.664 235.446C469.606 250.019 477.166 264.259 490.389 270.719L502.966 276.863C523.703 286.994 548.289 273.942 551.516 251.09ZM636.286 368.87L472.466 397.645C457.971 400.191 446.764 411.781 444.706 426.354L433.109 508.48C427.631 547.272 375.714 556.391 357.344 521.788L318.454 448.53C311.553 435.531 297.067 428.454 282.572 431L151.512 454.02C144.446 455.261 137.955 458.707 132.968 463.865L68.0492 531.002C45.1736 554.659 65.9352 593.768 98.3475 588.074L287.114 554.918C304.37 551.887 321.616 560.312 329.831 575.787L419.697 745.069C435.127 774.135 478.738 766.475 483.339 733.89L510.137 544.116C512.587 526.768 525.929 512.97 543.185 509.939L731.952 476.782C764.364 471.089 770.555 427.246 740.987 412.8L657.075 371.805C650.629 368.656 643.352 367.629 636.286 368.87ZM231.171 284.115L148.665 128.698C146.209 124.07 142.35 120.339 137.642 118.039C116.047 107.489 93.568 130.736 104.838 151.964L187.343 307.382C195.247 322.27 215.377 325.112 227.093 312.995C234.565 305.268 236.211 293.609 231.171 284.115ZM554.719 251.543C551.185 276.571 524.258 290.866 501.546 279.77L488.969 273.626C474.486 266.55 466.207 250.954 468.46 234.994L487.066 103.235C488.165 95.4547 491.698 88.2222 497.16 82.5738L512.904 66.2918C537.958 40.3814 581.531 61.6688 576.492 97.3573L554.719 251.543ZM635.726 365.683C643.465 364.324 651.435 365.45 658.495 368.899L742.407 409.893C774.791 425.715 768.011 473.733 732.512 479.969L543.745 513.125C527.869 515.914 515.594 528.608 513.341 544.568L486.543 734.342C481.503 770.031 433.739 778.42 416.839 746.586L326.973 577.304C319.415 563.067 303.549 555.316 287.674 558.104L98.9071 591.261C63.4081 597.496 40.6691 554.663 65.7234 528.753L130.642 461.616C136.104 455.967 143.214 452.193 150.952 450.834L282.012 427.813C297.888 425.025 313.753 432.776 321.311 447.013L360.202 520.271C377.102 552.106 424.866 543.716 429.905 508.028L441.502 425.901C443.756 409.941 456.031 397.247 471.906 394.458L635.726 365.683ZM229.419 315.244C216.174 328.941 193.42 325.728 184.486 308.899L101.98 153.482C89.2408 129.485 114.651 103.206 139.062 115.132C144.384 117.732 148.746 121.949 151.523 127.181L234.029 282.598C239.726 293.33 237.865 306.509 229.419 315.244Z" fill="url(#paint10_linear_319_224)"/>
<path fill-rule="evenodd" clip-rule="evenodd" d="M556.479 258.3L585.295 105.274C591.385 72.9339 552.533 51.6947 528.597 74.2788L512.124 89.8222C506.906 94.7454 503.38 101.194 502.053 108.244L477.428 239.012C474.705 253.475 481.604 268.047 494.517 275.106L506.8 281.821C527.05 292.891 552.208 280.98 556.479 258.3ZM635.762 379.84L470.796 401.077C456.199 402.956 444.473 414.021 441.749 428.484L426.4 509.992C419.151 548.492 366.87 555.223 350.106 519.814L314.613 444.85C308.316 431.549 294.169 423.815 279.572 425.694L147.595 442.684C140.48 443.6 133.838 446.745 128.62 451.669L60.6924 515.76C36.7567 538.344 55.7042 578.363 88.3433 574.161L278.431 549.69C295.808 547.453 312.649 556.66 320.146 572.495L402.16 745.718C416.242 775.461 460.158 769.807 466.248 737.467L501.715 549.121C504.957 531.903 518.917 518.731 536.294 516.494L726.382 492.023C759.021 487.821 767.215 444.308 738.34 428.523L656.395 383.725C650.1 380.284 642.878 378.924 635.762 379.84ZM234.958 276.609L159.661 117.573C157.419 112.838 153.735 108.934 149.138 106.42C128.049 94.8916 104.528 117.084 114.813 138.807L190.11 297.842C197.322 313.076 217.301 316.839 229.56 305.271C237.378 297.895 239.557 286.323 234.958 276.609ZM559.658 258.898C554.981 283.738 527.427 296.784 505.248 284.659L492.965 277.945C478.822 270.213 471.266 254.254 474.249 238.413L498.873 107.646C500.327 99.9241 504.188 92.8611 509.903 87.469L526.377 71.9256C552.592 47.1906 595.144 70.4526 588.474 105.873L559.658 258.898ZM635.349 376.631C643.142 375.628 651.053 377.118 657.947 380.887L739.892 425.684C771.517 442.973 762.543 490.63 726.795 495.232L536.707 519.703C520.721 521.761 507.877 533.879 504.894 549.72L469.427 738.066C462.757 773.486 414.659 779.678 399.236 747.102L317.222 573.88C310.325 559.311 294.831 550.841 278.844 552.899L88.7563 577.37C53.0088 581.972 32.2567 538.142 58.4721 513.407L126.399 449.316C132.114 443.923 139.389 440.479 147.182 439.476L279.159 422.486C295.146 420.427 310.64 428.898 317.538 443.466L353.03 518.43C368.453 551.006 416.551 544.814 423.221 509.394L438.57 427.885C441.553 412.045 454.396 399.926 470.383 397.868L635.349 376.631ZM231.781 307.624C217.922 320.7 195.339 316.448 187.185 299.227L111.889 140.192C100.263 115.636 126.851 90.5494 150.69 103.582C155.887 106.423 160.051 110.836 162.585 116.189L237.882 275.224C243.081 286.206 240.618 299.286 231.781 307.624Z" fill="url(#paint11_linear_319_224)"/>
<path fill-rule="evenodd" clip-rule="evenodd" d="M560.574 264.837L595.548 113.1C602.94 81.0323 564.978 58.241 540.149 79.8397L523.061 94.7049C517.649 99.4134 513.866 105.714 512.254 112.705L482.367 242.371C479.062 256.713 485.367 271.551 497.984 279.126L509.985 286.332C529.772 298.211 555.391 287.326 560.574 264.837ZM634.883 389.481L469.193 404.036C454.533 405.324 442.369 415.906 439.063 430.247L420.434 511.069C411.635 549.245 359.126 553.858 343.805 517.801L311.37 441.464C305.615 427.919 291.792 419.621 277.132 420.909L144.576 432.553C137.43 433.181 130.665 436.055 125.253 440.764L54.7919 502.058C29.9633 523.657 47.2787 564.409 80.0609 561.529L270.982 544.757C288.435 543.224 304.891 553.103 311.742 569.229L386.691 745.623C399.56 775.91 443.669 772.036 451.06 739.968L494.107 553.208C498.042 536.135 512.523 523.538 529.976 522.005L720.897 505.233C753.679 502.353 763.624 459.207 735.41 442.268L655.342 394.196C649.191 390.504 642.03 388.853 634.883 389.481ZM238.576 270.142L169.765 108.195C167.716 103.373 164.193 99.3229 159.701 96.626C139.095 84.2547 114.697 105.479 124.096 127.6L192.907 289.547C199.498 305.06 219.308 309.626 232.025 298.563C240.135 291.509 242.779 280.035 238.576 270.142ZM563.727 265.563C558.05 290.194 529.991 302.116 508.32 289.105L496.319 281.9C482.5 273.603 475.594 257.352 479.215 241.645L509.102 111.978C510.867 104.322 515.01 97.4208 520.938 92.264L538.026 77.3988C565.219 53.743 606.796 78.7049 598.701 113.827L563.727 265.563ZM634.6 386.258C642.427 385.57 650.271 387.378 657.007 391.423L737.076 439.494C767.977 458.046 757.085 505.302 721.18 508.456L530.259 525.228C514.202 526.639 500.88 538.228 497.259 553.935L454.212 740.695C446.117 775.816 397.808 780.06 383.714 746.888L308.765 570.494C302.461 555.659 287.322 546.57 271.265 547.98L80.344 564.752C44.4397 567.906 25.4752 523.273 52.6684 499.617L123.129 438.323C129.057 433.166 136.466 430.018 144.293 429.33L276.849 417.686C292.905 416.275 308.044 425.364 314.348 440.199L346.783 516.536C360.878 549.708 409.186 545.464 417.282 510.342L435.911 429.52C439.531 413.813 452.853 402.224 468.91 400.813L634.6 386.258ZM234.149 301.004C219.773 313.51 197.38 308.348 189.929 290.812L121.118 128.865C110.494 103.86 138.074 79.8676 161.367 93.8522C166.445 96.9008 170.427 101.479 172.743 106.93L241.554 268.877C246.305 280.059 243.316 293.03 234.149 301.004Z" fill="url(#paint12_linear_319_224)"/>
<path fill-rule="evenodd" clip-rule="evenodd" d="M564.905 272.461L606.809 122.49C615.664 90.7955 578.789 66.2853 552.995 86.7213L535.242 100.786C529.619 105.241 525.551 111.362 523.62 118.271L487.812 246.429C483.851 260.603 489.468 275.715 501.725 283.862L513.382 291.61C532.602 304.386 558.694 294.688 564.905 272.461ZM633.412 400.385L467.229 407.318C452.525 407.932 439.888 417.944 435.927 432.118L413.607 512C403.065 549.731 350.399 551.928 336.75 515.206L307.854 437.461C302.727 423.666 289.3 414.741 274.595 415.355L141.645 420.901C134.477 421.2 127.588 423.761 121.965 428.216L48.7642 486.211C22.9702 506.647 38.3963 548.151 71.2761 546.779L262.766 538.79C280.271 538.06 296.256 548.685 302.36 565.107L369.131 744.756C380.596 775.603 424.835 773.758 433.691 742.063L485.267 557.477C489.982 540.603 505.026 528.684 522.531 527.953L714.021 519.965C746.901 518.593 758.817 475.948 731.41 457.732L653.633 406.035C647.659 402.064 640.58 400.086 633.412 400.385ZM243.002 262.977L181.7 98.0412C179.874 93.13 176.541 88.9228 172.178 86.0225C152.161 72.7181 126.814 92.8 135.188 115.329L196.49 280.264C202.363 296.064 221.942 301.535 235.154 291.067C243.578 284.393 246.747 273.052 243.002 262.977ZM568.021 273.332C561.219 297.676 532.642 308.297 511.591 294.305L499.934 286.556C486.51 277.634 480.358 261.082 484.696 245.558L520.505 117.401C522.619 109.833 527.075 103.13 533.233 98.2504L550.986 84.1854C579.237 61.8031 619.624 88.6476 609.925 123.361L568.021 273.332ZM633.278 397.153C641.128 396.825 648.88 398.991 655.424 403.341L733.201 455.037C763.218 474.989 750.167 521.695 714.156 523.197L522.666 531.186C506.561 531.858 492.721 542.823 488.383 558.347L436.807 742.934C427.108 777.647 378.655 779.668 366.098 745.884L299.327 566.234C293.711 551.126 279.006 541.351 262.901 542.023L71.4109 550.011C35.3997 551.514 18.5045 506.057 46.7551 483.675L119.956 425.68C126.114 420.8 133.66 417.996 141.51 417.669L274.46 412.122C290.565 411.45 305.271 421.225 310.887 436.334L339.782 514.079C352.339 547.863 400.792 545.842 410.491 511.129L432.811 431.247C437.149 415.723 450.99 404.758 467.094 404.086L633.278 397.153ZM237.163 293.603C222.228 305.435 200.096 299.251 193.458 281.392L132.155 116.456C122.69 90.9894 151.342 68.2888 173.968 83.328C178.901 86.6066 182.669 91.3624 184.732 96.9141L246.035 261.85C250.268 273.239 246.686 286.058 237.163 293.603Z" fill="url(#paint13_linear_319_224)"/>
<path fill-rule="evenodd" clip-rule="evenodd" d="M568.874 280.259L617.607 132.366C627.906 101.11 592.192 74.936 565.489 94.1684L547.11 107.405C541.289 111.598 536.944 117.526 534.699 124.339L493.055 250.721C488.449 264.699 493.367 280.052 505.237 288.752L516.528 297.027C535.142 310.67 561.651 302.178 568.874 280.259ZM631.447 411.188L465.12 410.498C450.404 410.437 437.321 419.859 432.715 433.837L406.758 512.612C394.497 549.82 341.785 549.602 329.834 512.293L304.531 433.305C300.042 419.289 287.038 409.759 272.321 409.698L139.256 409.145C132.082 409.116 125.083 411.358 119.261 415.55L43.4796 470.13C16.7761 489.362 30.2839 531.53 63.1921 531.666L254.847 532.462C272.367 532.534 287.848 543.88 293.193 560.565L351.661 743.086C361.7 774.426 405.978 774.609 416.277 743.354L476.258 561.325C481.741 544.685 497.316 533.468 514.836 533.541L706.491 534.336C739.399 534.473 753.256 492.419 726.713 472.966L651.387 417.759C645.601 413.518 638.621 411.218 631.447 411.188ZM247.744 256.032L194.065 88.4605C192.466 83.4707 189.329 79.1152 185.103 76.0179C165.718 61.8103 139.477 80.7094 146.809 103.598L200.489 271.17C205.631 287.222 224.939 293.584 238.616 283.734C247.338 277.452 251.023 266.268 247.744 256.032ZM571.946 281.271C564.036 305.278 535.003 314.578 514.615 299.636L503.325 291.362C490.324 281.833 484.937 265.017 489.982 249.708L531.626 123.327C534.085 115.864 538.844 109.372 545.219 104.78L563.598 91.5431C592.845 70.479 631.959 99.1462 620.679 133.378L571.946 281.271ZM631.46 407.953C639.317 407.986 646.963 410.505 653.3 415.15L728.626 470.356C757.697 491.662 742.52 537.721 706.477 537.572L514.823 536.776C498.704 536.709 484.375 547.029 479.331 562.338L419.35 744.367C408.07 778.599 359.575 778.397 348.58 744.073L290.112 561.552C285.194 546.202 270.952 535.764 254.834 535.697L63.1786 534.901C27.1364 534.752 12.3421 488.569 41.5888 467.505L117.371 412.925C123.746 408.333 131.412 405.878 139.269 405.91L272.334 406.462C288.453 406.529 302.695 416.968 307.612 432.318L332.915 511.306C343.91 545.63 392.405 545.831 403.685 511.599L429.642 432.824C434.687 417.515 449.015 407.196 465.134 407.263L631.46 407.953ZM240.507 286.359C225.046 297.494 203.22 290.302 197.408 272.157L143.728 104.585C135.44 78.7117 165.103 57.348 187.016 73.4084C191.793 76.9095 195.339 81.8331 197.146 87.4734L250.825 255.045C254.532 266.616 250.366 279.258 240.507 286.359Z" fill="url(#paint14_linear_319_224)"/>
<path fill-rule="evenodd" clip-rule="evenodd" d="M572.455 288.169L627.86 142.644C639.569 111.89 605.083 84.1189 577.533 102.118L558.571 114.505C552.565 118.429 547.956 124.153 545.403 130.858L498.057 255.216C492.821 268.97 497.036 284.531 508.499 293.762L519.401 302.541C537.377 317.016 564.244 309.738 572.455 288.169ZM629.013 421.808L462.889 413.558C448.19 412.828 434.693 421.646 429.457 435.4L399.945 512.914C386.006 549.526 333.359 546.912 323.116 509.098L301.429 429.042C297.581 414.837 285.024 404.725 270.325 403.995L137.423 397.395C130.258 397.039 123.164 398.961 117.158 402.884L38.9739 453.963C11.4238 471.961 23.0009 514.699 55.8689 516.331L247.289 525.838C264.788 526.707 279.737 538.745 284.318 555.656L334.429 740.645C343.034 772.409 387.257 774.605 398.967 743.85L467.16 564.736C473.394 548.362 489.462 537.864 506.961 538.733L698.381 548.24C731.249 549.872 747.004 508.492 721.372 487.852L648.634 429.278C643.046 424.779 636.178 422.164 629.013 421.808ZM252.759 249.371L206.752 79.5327C205.382 74.4755 202.446 69.9818 198.365 66.6957C179.646 51.6215 152.573 69.3084 158.857 92.5068L204.864 262.345C209.271 278.614 228.27 285.848 242.381 276.629C251.38 270.75 255.569 259.746 252.759 249.371ZM575.479 289.321C566.485 312.943 537.059 320.914 517.372 305.061L506.47 296.282C493.915 286.172 489.298 269.128 495.034 254.065L542.38 129.706C545.175 122.363 550.224 116.094 556.802 111.797L575.763 99.4091C605.937 79.6962 643.708 110.112 630.884 143.796L575.479 289.321ZM629.173 418.577C637.021 418.966 644.543 421.83 650.663 426.758L723.402 485.332C751.474 507.937 734.219 553.259 698.221 551.471L506.8 541.965C490.701 541.165 475.918 550.823 470.183 565.887L401.99 745.001C389.166 778.685 340.731 776.28 331.307 741.491L281.195 556.501C276.981 540.943 263.228 529.869 247.129 529.069L55.7083 519.563C19.7102 517.775 7.03041 470.967 37.2043 451.254L115.389 400.176C121.966 395.878 129.736 393.774 137.583 394.164L270.486 400.764C286.585 401.563 300.338 412.638 304.552 428.196L326.238 508.252C335.662 543.041 384.097 545.446 396.922 511.762L426.433 434.249C432.168 419.185 446.951 409.527 463.05 410.327L629.173 418.577ZM244.151 279.338C228.2 289.758 206.723 281.582 201.742 263.191L155.734 93.3527C148.631 67.1292 179.234 47.1359 200.395 64.1758C205.008 67.8904 208.326 72.9701 209.875 78.6867L255.882 248.525C259.059 260.253 254.323 272.692 244.151 279.338Z" fill="url(#paint15_linear_319_224)"/>
<path fill-rule="evenodd" clip-rule="evenodd" d="M575.699 296.311L637.727 153.483C650.836 123.298 617.661 93.9735 589.314 110.688L569.803 122.192C563.624 125.836 558.756 131.343 555.899 137.923L502.893 259.976C497.03 273.475 500.527 289.214 511.554 298.961L522.042 308.231C539.333 323.516 566.506 317.479 575.699 296.311ZM626.061 432.405L460.492 416.537C445.842 415.133 431.954 423.322 426.092 436.821L393.053 512.898C377.447 548.832 324.976 543.803 316.479 505.559L298.492 424.591C295.3 410.224 283.22 399.547 268.57 398.143L136.111 385.448C128.97 384.763 121.795 386.357 115.615 390.001L35.1685 437.436C6.82112 454.151 16.4238 497.375 49.1822 500.514L239.964 518.799C257.405 520.471 271.786 533.182 275.585 550.286L317.15 737.381C324.287 769.506 368.363 773.73 381.472 743.546L457.817 567.751C464.796 551.681 481.329 541.932 498.77 543.604L689.552 561.888C722.31 565.028 739.948 524.415 715.292 502.62L645.319 440.768C639.944 436.017 633.203 433.09 626.061 432.405ZM258.122 242.876L219.961 71.1037C218.824 65.989 216.098 61.3652 212.172 57.8952C194.165 41.9775 166.308 58.4027 171.521 81.8652L209.682 253.637C213.337 270.091 231.984 278.189 246.503 269.628C255.762 264.169 260.453 253.368 258.122 242.876ZM578.667 297.6C568.598 320.784 538.837 327.396 519.899 310.655L509.411 301.385C497.334 290.71 493.504 273.472 499.925 258.687L552.931 136.634C556.061 129.427 561.392 123.396 568.16 119.405L587.67 107.901C618.717 89.5947 655.052 121.712 640.695 154.772L578.667 297.6ZM626.37 429.185C634.191 429.934 641.575 433.141 647.462 438.344L717.434 500.196C744.439 524.066 725.122 568.548 689.244 565.109L498.461 546.824C482.416 545.286 467.205 554.255 460.785 569.04L384.44 744.834C370.082 777.894 321.809 773.267 313.992 738.083L272.427 550.987C268.931 535.252 255.701 523.558 239.656 522.02L48.8735 503.735C12.9954 500.296 2.47803 452.956 33.5252 434.649L113.972 387.214C120.74 383.223 128.598 381.477 136.42 382.227L268.879 394.922C284.924 396.46 298.154 408.155 301.65 423.89L319.638 504.857C327.454 540.042 375.728 544.668 390.085 511.609L423.124 435.532C429.545 420.747 444.756 411.778 460.801 413.316L626.37 429.185ZM248.147 272.415C231.734 282.093 210.655 272.939 206.523 254.339L168.363 82.5668C162.47 56.0449 193.959 37.4777 214.315 55.4712C218.753 59.3937 221.835 64.6203 223.119 70.4021L261.28 242.174C263.915 254.035 258.613 266.244 248.147 272.415Z" fill="url(#paint16_linear_319_224)"/>
<path fill-rule="evenodd" clip-rule="evenodd" d="M578.565 304.58L647.073 164.745C661.552 135.192 629.755 104.378 600.672 119.776L580.655 130.374C574.315 133.731 569.2 139.009 566.044 145.451L507.5 264.947C501.025 278.163 503.797 294.045 514.365 304.287L524.417 314.029C540.99 330.09 568.411 325.305 578.565 304.58ZM622.637 442.839L457.969 419.4C443.399 417.326 429.15 424.87 422.675 438.086L386.184 512.569C368.948 547.75 316.762 540.322 310.028 501.728L295.77 420.021C293.24 405.523 281.662 394.303 267.092 392.229L135.353 373.477C128.251 372.466 121.011 373.73 114.671 377.086L32.1345 420.785C3.05088 436.183 10.6626 479.802 43.2426 484.439L232.987 511.448C250.332 513.917 264.115 527.275 267.127 544.534L300.074 733.338C305.731 765.756 349.567 771.996 364.046 742.443L448.367 570.333C456.075 554.599 473.038 545.618 490.383 548.087L680.127 575.096C712.707 579.734 732.188 539.971 708.556 517.069L641.491 452.076C636.339 447.084 629.739 443.85 622.637 442.839ZM263.77 236.647L233.521 63.3063C232.62 58.1448 230.109 53.401 226.346 49.7547C209.087 33.0285 180.507 48.1599 184.639 71.8365L214.888 245.177C217.785 261.781 236.041 270.725 250.938 262.839C260.437 257.809 265.618 247.235 263.77 236.647ZM581.47 306.003C570.35 328.702 540.317 333.943 522.166 316.352L512.114 306.611C500.539 295.393 497.503 277.998 504.595 263.523L563.138 144.027C566.595 136.972 572.197 131.191 579.141 127.515L599.158 116.917C631.011 100.052 665.836 133.801 649.979 166.168L581.47 306.003ZM623.093 439.636C630.872 440.743 638.1 444.285 643.743 449.753L710.807 514.746C736.69 539.829 715.354 583.378 679.671 578.299L489.927 551.29C473.969 549.019 458.364 557.281 451.272 571.756L366.951 743.867C351.094 776.234 303.083 769.4 296.887 733.894L263.94 545.09C261.169 529.211 248.488 516.923 232.531 514.651L42.7867 487.642C7.10384 482.563 -1.23288 434.79 30.6207 417.925L113.157 374.227C120.101 370.551 128.031 369.167 135.809 370.274L267.548 389.026C283.505 391.298 296.186 403.587 298.957 419.465L313.215 501.172C319.411 536.678 367.422 543.512 383.279 511.145L419.77 436.662C426.862 422.187 442.467 413.925 458.425 416.197L623.093 439.636ZM252.452 265.698C235.613 274.613 214.976 264.503 211.7 245.733L181.452 72.3927C176.781 45.6286 209.088 28.524 228.598 47.4314C232.851 51.5532 235.69 56.9156 236.708 62.7501L266.957 236.09C269.046 248.06 263.19 260.013 252.452 265.698Z" fill="url(#paint17_linear_319_224)"/>
<path fill-rule="evenodd" clip-rule="evenodd" d="M580.867 312.312L655.221 175.495C670.934 146.581 640.468 114.451 610.76 128.607L590.313 138.35C583.837 141.436 578.504 146.493 575.078 152.796L511.539 269.712C504.512 282.643 506.61 298.628 516.737 309.308L526.368 319.465C542.248 336.212 569.847 332.589 580.867 312.312ZM619.059 452.309L455.528 421.935C441.059 419.247 426.504 426.183 419.477 439.114L379.872 511.989C361.165 546.41 309.34 536.784 304.241 497.941L293.447 415.705C291.532 401.113 280.439 389.414 265.969 386.726L135.14 362.426C128.087 361.116 120.8 362.073 114.324 365.158L30.0154 405.331C0.307299 419.487 6.06976 463.389 38.4248 469.398L226.858 504.398C244.084 507.598 257.291 521.525 259.571 538.896L284.513 728.923C288.796 761.552 332.329 769.638 348.043 740.723L439.559 572.328C447.925 556.934 465.252 548.677 482.478 551.877L670.911 586.877C703.266 592.886 724.409 553.982 701.766 530.103L637.506 462.334C632.57 457.129 626.112 453.619 619.059 452.309ZM269.222 231.142L246.322 56.6787C245.64 51.4838 243.331 46.6382 239.726 42.8362C223.189 25.3958 193.996 39.3065 197.123 63.1366L220.023 237.6C222.217 254.312 240.079 264.019 255.295 256.768C264.998 252.145 270.621 241.799 269.222 231.142ZM583.709 313.857C571.64 336.065 541.413 340.033 524.021 321.691L514.389 311.534C503.298 299.837 501 282.33 508.697 268.167L572.236 151.251C575.988 144.347 581.829 138.809 588.922 135.429L609.368 125.686C641.906 110.182 675.274 145.372 658.063 177.04L583.709 313.857ZM619.65 449.128C627.375 450.563 634.448 454.407 639.854 460.108L704.113 527.876C728.913 554.03 705.757 596.639 670.321 590.057L481.887 555.058C466.039 552.114 450.098 559.71 442.402 573.872L350.886 742.268C333.676 773.936 285.996 765.08 281.305 729.344L256.363 539.318C254.265 523.336 242.115 510.523 226.268 507.579L37.834 472.579C2.39752 465.997 -3.91381 417.915 28.6237 402.411L112.932 362.238C120.025 358.858 128.006 357.81 135.731 359.245L266.56 383.545C282.407 386.489 294.557 399.302 296.655 415.284L307.449 497.52C312.14 533.256 359.819 542.112 377.03 510.444L416.634 437.569C424.331 423.406 440.271 415.811 456.119 418.754L619.65 449.128ZM256.687 259.689C239.486 267.885 219.295 256.912 216.815 238.021L193.916 63.5576C190.38 36.6201 223.38 20.8954 242.074 40.6101C246.149 44.9078 248.759 50.3854 249.53 56.2577L272.43 230.721C274.011 242.768 267.655 254.463 256.687 259.689Z" fill="url(#paint18_linear_319_224)"/>
<path fill-rule="evenodd" clip-rule="evenodd" d="M582.998 320.814L663.555 187.556C680.579 159.393 651.62 125.899 621.293 138.676L600.421 147.469C593.81 150.255 588.25 155.061 584.539 161.201L515.699 275.076C508.085 287.671 509.448 303.736 519.073 314.869L528.228 325.458C543.322 342.916 571.058 340.564 582.998 320.814ZM614.722 462.418L452.758 424.567C438.427 421.218 423.57 427.478 415.956 440.073L373.047 511.052C352.78 544.579 301.451 532.584 298.141 493.547L291.134 410.902C289.891 396.238 279.346 384.042 265.015 380.692L135.44 350.411C128.455 348.779 121.132 349.4 114.52 352.185L28.4563 388.445C-1.87039 401.222 1.87037 445.341 33.9154 452.83L220.543 496.445C237.604 500.432 250.157 514.951 251.637 532.408L267.829 723.38C270.609 756.171 313.725 766.247 330.75 738.084L429.901 574.068C438.965 559.074 456.653 551.622 473.713 555.609L660.341 599.224C692.386 606.712 715.293 568.82 693.77 543.926L632.689 473.279C627.997 467.852 621.708 464.05 614.722 462.418ZM275.408 225.422L260.543 50.0909C260.1 44.8702 258.016 39.9237 254.589 35.9602C238.87 17.7789 209.069 30.3346 211.099 54.2831L225.965 229.614C227.389 246.409 244.786 256.926 260.319 250.382C270.225 246.208 276.316 236.132 275.408 225.422ZM585.766 322.488C572.69 344.119 542.312 346.695 525.781 327.574L516.626 316.985C506.083 304.792 504.592 287.197 512.93 273.403L581.77 159.527C585.835 152.803 591.924 147.538 599.165 144.488L620.037 135.694C653.252 121.7 684.97 158.385 666.323 189.23L585.766 322.488ZM615.458 459.267C623.109 461.055 629.998 465.219 635.137 471.163L696.217 541.81C719.79 569.075 694.702 610.576 659.605 602.374L472.977 558.76C457.281 555.092 441.008 561.948 432.67 575.742L333.519 739.758C314.873 770.603 267.65 759.567 264.605 723.653L248.414 532.682C247.052 516.621 235.503 503.263 219.807 499.595L33.1791 455.981C-1.91776 447.779 -6.01484 399.457 27.2002 385.463L113.264 349.203C120.505 346.153 128.526 345.473 136.177 347.261L265.752 377.542C281.447 381.21 292.996 394.568 294.358 410.629L301.365 493.274C304.41 529.187 351.633 540.223 370.279 509.379L413.187 438.399C421.526 424.605 437.799 417.749 453.494 421.417L615.458 459.267ZM261.575 253.363C244.017 260.761 224.351 248.872 222.741 229.887L207.875 54.5564C205.58 27.485 239.267 13.292 257.037 33.8442C260.91 38.3245 263.266 43.9161 263.766 49.8176L278.632 225.148C279.658 237.255 272.772 248.646 261.575 253.363Z" fill="url(#paint19_linear_319_224)"/>
<path fill-rule="evenodd" clip-rule="evenodd" d="M584.728 329.393L671.308 199.967C689.605 172.614 662.212 137.828 631.331 149.201L610.078 157.029C603.346 159.509 597.572 164.056 593.583 170.018L519.597 280.62C511.414 292.852 512.038 308.962 521.143 320.525L529.804 331.522C544.082 349.654 571.896 348.576 584.728 329.393ZM609.93 472.302L449.871 427.069C435.709 423.066 420.58 428.639 412.397 440.871L366.28 509.81C344.498 542.373 293.772 528.037 292.255 488.89L289.043 406.011C288.473 391.305 278.498 378.638 264.336 374.636L136.285 338.448C129.382 336.498 122.038 336.782 115.306 339.262L27.6703 371.539C-3.21006 382.913 -1.49519 427.158 30.173 436.107L214.606 488.228C231.466 492.993 243.341 508.072 244.019 525.58L251.442 717.092C252.716 749.976 295.325 762.018 313.623 734.665L420.186 575.365C429.928 560.803 447.938 554.169 464.798 558.934L649.232 611.055C680.9 620.005 705.519 583.202 685.159 557.347L627.381 483.976C622.942 478.339 616.834 474.253 609.93 472.302ZM281.834 220.005L275.019 44.1769C274.816 38.9414 272.961 33.9045 269.72 29.7882C254.85 10.9056 224.505 22.0823 225.436 46.0988L232.25 221.926C232.903 238.769 249.8 250.073 265.617 244.247C275.703 240.532 282.25 230.745 281.834 220.005ZM587.418 331.192C573.363 352.202 542.9 353.382 527.262 333.524L518.602 322.526C508.629 309.863 507.945 292.218 516.908 278.821L590.894 168.22C595.263 161.689 601.587 156.709 608.96 153.993L630.213 146.165C664.034 133.708 694.037 171.808 673.997 201.766L587.418 331.192ZM610.81 469.189C618.371 471.325 625.061 475.801 629.922 481.974L687.701 555.346C710 583.663 683.036 623.97 648.352 614.168L463.919 562.047C448.407 557.664 431.838 563.766 422.875 577.164L316.312 736.464C296.272 766.421 249.605 753.233 248.209 717.218L240.786 525.705C240.162 509.598 229.237 495.725 213.726 491.342L29.2931 439.22C-5.39104 429.419 -7.2693 380.96 26.5521 368.503L114.187 336.226C121.56 333.51 129.604 333.198 137.165 335.335L265.216 371.523C280.727 375.906 291.652 389.779 292.276 405.886L295.488 488.765C296.884 524.78 343.551 537.969 363.591 508.011L409.708 439.072C418.67 425.675 435.24 419.572 450.751 423.955L610.81 469.189ZM266.735 247.283C248.856 253.868 229.755 241.091 229.017 222.052L222.203 46.2241C221.15 19.0759 255.453 6.44168 272.261 27.7866C275.926 32.4397 278.023 38.1334 278.252 44.0516L285.067 219.879C285.537 232.02 278.137 243.084 266.735 247.283Z" fill="url(#paint20_linear_319_224)"/>
<path fill-rule="evenodd" clip-rule="evenodd" d="M586.06 337.971L678.433 212.614C697.955 186.121 672.171 150.125 640.805 160.084L619.218 166.937C612.381 169.108 606.406 173.388 602.15 179.163L523.213 286.287C514.482 298.135 514.374 314.257 522.944 326.221L531.095 337.601C544.535 356.363 572.369 356.551 586.06 337.971ZM604.74 481.878L446.902 429.416C432.936 424.774 417.57 429.653 408.84 441.5L359.637 508.272C336.397 539.811 286.376 523.185 286.639 484.009L287.198 401.069C287.297 386.353 277.908 373.246 263.942 368.604L137.669 326.633C130.861 324.37 123.512 324.321 116.674 326.492L27.6622 354.752C-3.70329 364.711 -4.00131 408.988 27.2273 419.368L209.101 479.818C225.727 485.344 236.903 500.948 236.785 518.468L235.495 710.12C235.274 743.028 277.292 756.994 296.814 730.501L410.508 576.209C420.901 562.105 439.195 556.297 455.82 561.823L637.694 622.274C668.923 632.653 695.189 597.008 676.026 570.255L621.642 494.332C617.464 488.5 611.548 484.14 604.74 481.878ZM288.451 214.928L289.635 38.9719C289.671 33.7325 288.046 28.6165 284.995 24.3571C270.999 4.81819 240.177 14.604 240.016 38.6379L238.831 214.594C238.718 231.449 255.084 243.508 271.149 238.408C281.393 235.155 288.379 225.676 288.451 214.928ZM588.665 339.89C573.67 360.239 543.184 360.034 528.465 339.485L520.314 328.105C510.927 315.002 511.046 297.344 520.608 284.368L599.545 177.244C604.206 170.919 610.75 166.231 618.239 163.854L639.826 157C674.179 146.093 702.419 185.517 681.038 214.533L588.665 339.89ZM605.76 478.807C613.216 481.286 619.697 486.061 624.272 492.448L678.656 568.371C699.644 597.672 670.876 636.712 636.674 625.344L454.8 564.893C439.504 559.809 422.674 565.152 413.112 578.129L299.418 732.42C278.037 761.436 232.017 746.14 232.26 710.098L233.55 518.446C233.659 502.328 223.376 487.973 208.08 482.889L26.2068 422.438C-7.99591 411.069 -7.66956 362.576 26.6831 351.669L115.695 323.408C123.184 321.031 131.233 321.085 138.689 323.563L264.963 365.534C280.259 370.618 290.542 384.973 290.433 401.091L289.875 484.031C289.632 520.072 335.652 535.368 357.033 506.352L406.235 439.581C415.797 426.605 432.627 421.262 447.923 426.346L605.76 478.807ZM272.128 241.491C253.968 247.257 235.468 233.625 235.596 214.572L236.78 38.6161C236.963 11.4482 271.804 0.386244 287.625 22.4731C291.074 27.288 292.91 33.0711 292.871 38.9936L291.686 214.949C291.604 227.099 283.708 237.815 272.128 241.491Z" fill="url(#paint21_linear_319_224)"/>
<path fill-rule="evenodd" clip-rule="evenodd" d="M587.006 346.687L685.037 225.703C705.754 200.134 681.65 162.993 649.86 171.5L627.981 177.356C621.051 179.21 614.886 183.211 610.37 188.785L526.598 292.172C517.332 303.606 516.484 319.707 524.496 332.052L532.116 343.794C544.68 363.153 572.476 364.618 587.006 346.687ZM599.059 491.299L443.796 431.646C430.058 426.368 414.484 430.536 405.219 441.97L353.003 506.412C328.339 536.851 279.134 517.946 281.196 478.823L285.561 395.997C286.336 381.3 277.559 367.776 263.821 362.498L139.608 314.774C132.911 312.201 125.572 311.814 118.642 313.669L28.4261 337.813C-3.36353 346.321 -5.69411 390.537 25.025 402.34L203.931 471.077C220.286 477.361 230.734 493.461 229.812 510.957L219.724 702.348C217.992 735.211 259.324 751.091 280.042 725.523L400.7 576.614C411.73 563.001 430.271 558.039 446.626 564.323L625.532 633.06C656.251 644.863 684.127 610.461 666.212 582.856L615.371 504.517C611.466 498.499 605.755 493.872 599.059 491.299ZM295.359 210.109L304.621 34.3932C304.897 29.161 303.509 23.9758 300.657 19.5808C287.573 -0.580099 256.334 7.78027 255.069 31.7814L245.807 207.497C244.92 224.329 260.715 237.128 276.998 232.77C287.381 229.991 294.794 220.843 295.359 210.109ZM589.519 348.724C573.606 368.363 543.162 366.758 529.402 345.555L521.782 333.813C513.007 320.292 513.936 302.659 524.084 290.135L607.856 186.748C612.803 180.644 619.555 176.262 627.145 174.23L649.024 168.375C683.841 159.057 710.241 199.736 687.551 227.74L589.519 348.724ZM600.219 488.279C607.554 491.097 613.808 496.165 618.085 502.755L668.925 581.095C688.547 611.328 658.016 649.007 624.372 636.08L445.465 567.343C430.419 561.562 413.361 566.127 403.214 578.651L282.556 727.559C259.865 755.563 214.596 738.17 216.493 702.178L226.581 510.787C227.43 494.69 217.817 479.878 202.771 474.097L23.8646 405.36C-9.78007 392.433 -7.22758 344.006 27.5896 334.688L117.805 310.544C125.395 308.512 133.434 308.936 140.768 311.754L264.982 359.478C280.028 365.259 289.641 380.071 288.792 396.167L284.427 478.994C282.529 514.986 327.798 532.379 350.489 504.375L402.705 439.934C412.853 427.41 429.91 422.845 444.957 428.626L600.219 488.279ZM277.834 235.895C259.428 240.821 241.574 226.354 242.577 207.327L251.838 31.6111C253.268 4.48021 288.581 -4.97041 303.371 17.8195C306.595 22.7877 308.164 28.649 307.852 34.5635L298.59 210.279C297.951 222.413 289.571 232.754 277.834 235.895Z" fill="url(#paint22_linear_319_224)"/>
<path fill-rule="evenodd" clip-rule="evenodd" d="M587.548 355.42L691.021 239.056C712.889 214.464 690.512 176.256 658.366 183.298L636.241 188.145C629.233 189.68 622.891 193.394 618.124 198.755L529.702 298.194C519.922 309.192 518.337 325.236 525.774 337.936L532.849 350.014C544.512 369.929 572.212 372.667 587.548 355.42ZM592.961 500.433L440.596 433.727C427.114 427.825 411.365 431.275 401.585 442.272L346.471 504.254C320.438 533.53 272.151 512.39 276.004 473.403L284.161 390.864C285.608 376.218 277.46 362.306 263.979 356.404L142.083 303.037C135.511 300.16 128.197 299.437 121.189 300.972L29.9622 320.957C-2.1839 327.999 -6.53842 372.062 23.6075 385.26L199.176 462.124C215.225 469.151 224.925 485.713 223.202 503.148L204.353 693.876C201.117 726.624 241.678 744.382 263.546 719.79L390.901 576.567C402.543 563.475 421.292 559.367 437.342 566.394L612.91 643.258C643.056 656.456 672.479 623.368 655.848 594.971L608.651 514.384C605.025 508.194 599.533 503.31 592.961 500.433ZM302.468 205.62L319.773 30.5133C320.288 25.2993 319.139 20.0559 316.491 15.5348C304.345 -5.20452 272.756 1.71543 270.392 25.6334L253.087 200.74C251.43 217.514 266.622 231.023 283.087 227.416C293.586 225.116 301.411 216.316 302.468 205.62ZM589.966 357.57C573.17 376.459 542.831 373.461 530.057 351.65L522.983 339.571C514.837 325.662 516.573 308.09 527.284 296.044L615.707 196.605C620.928 190.734 627.874 186.666 635.549 184.984L657.673 180.138C692.881 172.425 717.389 214.272 693.439 241.206L589.966 357.57ZM594.259 497.469C601.456 500.62 607.471 505.969 611.442 512.749L658.639 593.336C676.854 624.437 644.629 660.677 611.612 646.222L436.044 569.358C421.279 562.893 404.03 566.672 393.319 578.717L265.963 721.94C242.013 748.874 197.589 729.425 201.134 693.557L219.982 502.83C221.567 486.789 212.644 471.552 197.878 465.088L22.31 388.224C-10.707 373.769 -5.9378 325.509 29.2699 317.796L120.497 297.812C128.172 296.131 136.183 296.922 143.38 300.073L265.276 353.44C280.042 359.904 288.966 375.141 287.381 391.182L279.224 473.721C275.679 509.589 320.103 529.038 344.053 502.104L399.168 440.123C409.879 428.077 427.128 424.299 441.893 430.763L594.259 497.469ZM283.779 230.576C265.167 234.653 247.994 219.383 249.868 200.422L267.173 25.3152C269.845 -1.72167 305.553 -9.54403 319.283 13.8998C322.276 19.0105 323.575 24.9375 322.992 30.8315L305.687 205.938C304.492 218.029 295.648 227.976 283.779 230.576Z" fill="url(#paint23_linear_319_224)"/>
<defs>
<linearGradient id="paint0_linear_319_224" x1="386.464" y1="0" x2="386.464" y2="770.129" gradientUnits="userSpaceOnUse">
<stop stop-color="#00C2FF"/>
<stop offset="1" stop-color="#0400DD" stop-opacity="0"/>
</linearGradient>
<linearGradient id="paint1_linear_319_224" x1="386.464" y1="0" x2="386.464" y2="770.129" gradientUnits="userSpaceOnUse">
<stop stop-color="#00C2FF"/>
<stop offset="1" stop-color="#0400DD" stop-opacity="0"/>
</linearGradient>
<linearGradient id="paint2_linear_319_224" x1="386.464" y1="0" x2="386.464" y2="770.129" gradientUnits="userSpaceOnUse">
<stop stop-color="#00C2FF"/>
<stop offset="1" stop-color="#0400DD" stop-opacity="0"/>
</linearGradient>
<linearGradient id="paint3_linear_319_224" x1="386.464" y1="0" x2="386.464" y2="770.129" gradientUnits="userSpaceOnUse">
<stop stop-color="#00C2FF"/>
<stop offset="1" stop-color="#0400DD" stop-opacity="0"/>
</linearGradient>
<linearGradient id="paint4_linear_319_224" x1="386.464" y1="0" x2="386.464" y2="770.129" gradientUnits="userSpaceOnUse">
<stop stop-color="#00C2FF"/>
<stop offset="1" stop-color="#0400DD" stop-opacity="0"/>
</linearGradient>
<linearGradient id="paint5_linear_319_224" x1="386.464" y1="0" x2="386.464" y2="770.129" gradientUnits="userSpaceOnUse">
<stop stop-color="#00C2FF"/>
<stop offset="1" stop-color="#0400DD" stop-opacity="0"/>
</linearGradient>
<linearGradient id="paint6_linear_319_224" x1="386.464" y1="0" x2="386.464" y2="770.129" gradientUnits="userSpaceOnUse">
<stop stop-color="#00C2FF"/>
<stop offset="1" stop-color="#0400DD" stop-opacity="0"/>
</linearGradient>
<linearGradient id="paint7_linear_319_224" x1="386.464" y1="0" x2="386.464" y2="770.129" gradientUnits="userSpaceOnUse">
<stop stop-color="#00C2FF"/>
<stop offset="1" stop-color="#0400DD" stop-opacity="0"/>
</linearGradient>
<linearGradient id="paint8_linear_319_224" x1="386.464" y1="0" x2="386.464" y2="770.129" gradientUnits="userSpaceOnUse">
<stop stop-color="#00C2FF"/>
<stop offset="1" stop-color="#0400DD" stop-opacity="0"/>
</linearGradient>
<linearGradient id="paint9_linear_319_224" x1="386.464" y1="0" x2="386.464" y2="770.129" gradientUnits="userSpaceOnUse">
<stop stop-color="#00C2FF"/>
<stop offset="1" stop-color="#0400DD" stop-opacity="0"/>
</linearGradient>
<linearGradient id="paint10_linear_319_224" x1="386.464" y1="0" x2="386.464" y2="770.129" gradientUnits="userSpaceOnUse">
<stop stop-color="#00C2FF"/>
<stop offset="1" stop-color="#0400DD" stop-opacity="0"/>
</linearGradient>
<linearGradient id="paint11_linear_319_224" x1="386.464" y1="0" x2="386.464" y2="770.129" gradientUnits="userSpaceOnUse">
<stop stop-color="#00C2FF"/>
<stop offset="1" stop-color="#0400DD" stop-opacity="0"/>
</linearGradient>
<linearGradient id="paint12_linear_319_224" x1="386.464" y1="0" x2="386.464" y2="770.129" gradientUnits="userSpaceOnUse">
<stop stop-color="#00C2FF"/>
<stop offset="1" stop-color="#0400DD" stop-opacity="0"/>
</linearGradient>
<linearGradient id="paint13_linear_319_224" x1="386.464" y1="0" x2="386.464" y2="770.129" gradientUnits="userSpaceOnUse">
<stop stop-color="#00C2FF"/>
<stop offset="1" stop-color="#0400DD" stop-opacity="0"/>
</linearGradient>
<linearGradient id="paint14_linear_319_224" x1="386.464" y1="0" x2="386.464" y2="770.129" gradientUnits="userSpaceOnUse">
<stop stop-color="#00C2FF"/>
<stop offset="1" stop-color="#0400DD" stop-opacity="0"/>
</linearGradient>
<linearGradient id="paint15_linear_319_224" x1="386.464" y1="0" x2="386.464" y2="770.129" gradientUnits="userSpaceOnUse">
<stop stop-color="#00C2FF"/>
<stop offset="1" stop-color="#0400DD" stop-opacity="0"/>
</linearGradient>
<linearGradient id="paint16_linear_319_224" x1="386.464" y1="0" x2="386.464" y2="770.129" gradientUnits="userSpaceOnUse">
<stop stop-color="#00C2FF"/>
<stop offset="1" stop-color="#0400DD" stop-opacity="0"/>
</linearGradient>
<linearGradient id="paint17_linear_319_224" x1="386.464" y1="0" x2="386.464" y2="770.129" gradientUnits="userSpaceOnUse">
<stop stop-color="#00C2FF"/>
<stop offset="1" stop-color="#0400DD" stop-opacity="0"/>
</linearGradient>
<linearGradient id="paint18_linear_319_224" x1="386.464" y1="0" x2="386.464" y2="770.129" gradientUnits="userSpaceOnUse">
<stop stop-color="#00C2FF"/>
<stop offset="1" stop-color="#0400DD" stop-opacity="0"/>
</linearGradient>
<linearGradient id="paint19_linear_319_224" x1="386.464" y1="0" x2="386.464" y2="770.129" gradientUnits="userSpaceOnUse">
<stop stop-color="#00C2FF"/>
<stop offset="1" stop-color="#0400DD" stop-opacity="0"/>
</linearGradient>
<linearGradient id="paint20_linear_319_224" x1="386.464" y1="0" x2="386.464" y2="770.129" gradientUnits="userSpaceOnUse">
<stop stop-color="#00C2FF"/>
<stop offset="1" stop-color="#0400DD" stop-opacity="0"/>
</linearGradient>
<linearGradient id="paint21_linear_319_224" x1="386.464" y1="0" x2="386.464" y2="770.129" gradientUnits="userSpaceOnUse">
<stop stop-color="#00C2FF"/>
<stop offset="1" stop-color="#0400DD" stop-opacity="0"/>
</linearGradient>
<linearGradient id="paint22_linear_319_224" x1="386.464" y1="0" x2="386.464" y2="770.129" gradientUnits="userSpaceOnUse">
<stop stop-color="#00C2FF"/>
<stop offset="1" stop-color="#0400DD" stop-opacity="0"/>
</linearGradient>
<linearGradient id="paint23_linear_319_224" x1="692.934" y1="189.475" x2="100.639" y2="536.362" gradientUnits="userSpaceOnUse">
<stop stop-color="#00C2FF"/>
<stop offset="1" stop-color="#0400DD" stop-opacity="0"/>
</linearGradient>
</defs>
</svg>
